<?xml version="1.0" encoding="utf-8" standalone="no"?>
<!DOCTYPE svg PUBLIC "-//W3C//DTD SVG 1.1//EN"
  "http://www.w3.org/Graphics/SVG/1.1/DTD/svg11.dtd">
<!-- Created with matplotlib (https://matplotlib.org/) -->
<svg height="345.6pt" version="1.1" viewBox="0 0 460.8 345.6" width="460.8pt" xmlns="http://www.w3.org/2000/svg" xmlns:xlink="http://www.w3.org/1999/xlink">
 <defs>
  <style type="text/css">
*{stroke-linecap:butt;stroke-linejoin:round;}
  </style>
 </defs>
 <g id="figure_1">
  <g id="patch_1">
   <path d="M 0 345.6 
L 460.8 345.6 
L 460.8 0 
L 0 0 
z
" style="fill:#ffffff;"/>
  </g>
  <g id="axes_1">
   <g id="line2d_1">
    <path clip-path="url(#p2f6a31efa6)" d="M 105.015548 174.215745 
L 107.425061 174.321881 
L 109.922932 174.64544 
L 112.509363 175.194011 
L 115.37929 176.039882 
L 118.352203 177.161426 
L 121.42936 178.567192 
L 124.612532 180.265348 
L 127.904117 182.263591 
L 131.538221 184.733793 
L 135.304332 187.561093 
L 139.457866 190.963256 
L 144.037836 195.017912 
L 149.093247 199.803593 
L 154.975731 205.68729 
L 163.698721 214.76957 
L 173.999196 225.433524 
L 179.450134 230.739958 
L 183.686428 234.56294 
L 187.324189 237.563373 
L 190.701092 240.061407 
L 193.775035 242.052824 
L 196.502767 243.563083 
L 198.842897 244.645019 
L 201.243794 245.531121 
L 203.703615 246.184779 
L 205.71131 246.514205 
L 207.751006 246.649615 
L 209.81829 246.571249 
L 211.907495 246.260968 
L 214.011746 245.703453 
L 216.12312 244.887439 
L 218.232944 243.806793 
L 220.332212 242.461271 
L 222.412066 240.85677 
L 224.464276 239.005029 
L 226.481661 236.922804 
L 228.94566 234.0275 
L 231.338078 230.84956 
L 233.654323 227.436084 
L 236.331391 223.093178 
L 239.316479 217.776255 
L 242.557349 211.486532 
L 246.008421 204.271399 
L 249.987195 195.412272 
L 255.073519 183.486394 
L 265.633301 157.926383 
L 272.323738 142.097502 
L 277.421627 130.587605 
L 281.893142 121.009505 
L 286.056035 112.588387 
L 289.929376 105.216003 
L 293.800748 98.314571 
L 297.400359 92.329023 
L 301.009485 86.752868 
L 304.352804 81.97171 
L 307.710056 77.54537 
L 311.08332 73.478059 
L 314.191023 70.069481 
L 317.314742 66.971657 
L 320.169179 64.429764 
L 323.038228 62.154053 
L 325.922402 60.149976 
L 328.822139 58.423724 
L 331.445515 57.113414 
L 334.082025 56.039567 
L 336.731857 55.208631 
L 339.39516 54.627834 
L 341.773938 54.328107 
L 344.163488 54.238803 
L 346.563819 54.367027 
L 348.974896 54.720715 
L 351.396629 55.308755 
L 353.828858 56.141136 
L 356.27133 57.229121 
L 358.72367 58.585457 
L 361.185341 60.22463 
L 363.655585 62.163174 
L 366.133347 64.420036 
L 368.617167 67.017032 
L 371.105027 69.979389 
L 373.594141 73.336405 
L 375.770145 76.624243 
L 377.940668 80.266746 
L 380.101014 84.294249 
L 382.244869 88.741495 
L 384.363706 93.648091 
L 386.445968 99.058742 
L 388.475954 105.022935 
L 390.158369 110.615713 
L 391.769152 116.687469 
L 393.285659 123.26861 
L 394.679447 130.381341 
L 395.915905 138.031854 
L 396.797361 144.804528 
L 397.5171 151.905825 
L 398.051132 159.282217 
L 398.379073 166.857165 
L 398.487273 174.534702 
L 398.371255 182.207925 
L 398.036573 189.77064 
L 397.497725 197.128789 
L 396.775571 204.208364 
L 395.894211 210.958376 
L 394.66092 218.583397 
L 393.273052 225.674806 
L 391.76452 232.240122 
L 390.163117 238.301984 
L 388.206648 244.778428 
L 386.18058 250.663315 
L 384.104869 256.008254 
L 381.994238 260.861165 
L 379.859559 265.265154 
L 377.400705 269.797279 
L 374.929665 273.842152 
L 372.452735 277.442131 
L 369.974457 280.633471 
L 367.498124 283.447266 
L 365.026136 285.910262 
L 362.560244 288.045561 
L 360.101728 289.8732 
L 357.651521 291.410638 
L 355.210303 292.67315 
L 352.77856 293.674161 
L 350.35664 294.425517 
L 347.94478 294.93771 
L 345.543136 295.220066 
L 343.1518 295.280904 
L 340.770815 295.127665 
L 338.400182 294.767024 
L 335.745555 294.120841 
L 333.103899 293.227397 
L 330.475085 292.093514 
L 327.85894 290.725279 
L 325.255253 289.128135 
L 322.37657 287.090951 
L 319.512537 284.783076 
L 316.662661 282.209725 
L 313.543451 279.077858 
L 310.43974 275.635571 
L 307.350425 271.887364 
L 303.99513 267.453939 
L 300.653339 262.66494 
L 297.045401 257.079201 
L 293.446496 251.082676 
L 289.851833 244.677182 
L 285.978565 237.322561 
L 281.815829 228.917421 
L 277.344675 219.352219 
L 272.533244 208.510041 
L 266.740923 194.86273 
L 247.769293 149.593658 
L 244.030981 141.500302 
L 240.457711 134.307082 
L 237.521403 128.86558 
L 234.884883 124.382465 
L 232.132804 120.140173 
L 229.750827 116.846845 
L 227.291588 113.826724 
L 224.762032 111.129673 
L 222.694982 109.235432 
L 220.597213 107.596432 
L 218.477335 106.226696 
L 216.344769 105.133967 
L 214.209216 104.319221 
L 212.080096 103.776828 
L 209.966066 103.495316 
L 207.874652 103.458566 
L 205.81205 103.647194 
L 203.783065 104.039936 
L 201.299281 104.784499 
L 198.877577 105.771721 
L 196.519815 106.962235 
L 193.774918 108.609361 
L 190.685943 110.765535 
L 187.713145 113.10777 
L 184.049375 116.303442 
L 180.168213 119.996409 
L 175.385703 124.881045 
L 169.18108 131.581846 
L 149.137492 153.518498 
L 143.841195 158.854392 
L 139.039649 163.373952 
L 134.679825 167.164658 
L 130.720018 170.312796 
L 127.126246 172.900147 
L 123.656701 175.131781 
L 120.307842 177.016907 
L 117.275574 178.478265 
L 114.345562 179.652244 
L 111.516756 180.547672 
L 108.788495 181.173636 
L 106.160439 181.539448 
L 103.632502 181.654622 
L 101.20481 181.528853 
L 98.877651 181.172007 
L 96.651448 180.594107 
L 94.526723 179.805326 
L 92.504071 178.815984 
L 90.584144 177.636535 
L 88.650216 176.180847 
L 86.834791 174.533913 
L 85.036701 172.589221 
L 83.374355 170.459455 
L 81.763251 168.020626 
L 80.306482 165.411764 
L 78.937303 162.495097 
L 77.742204 159.43394 
L 76.673225 156.081259 
L 75.798915 152.621805 
L 75.091046 148.904656 
L 74.598858 145.132285 
L 74.322458 141.336861 
L 74.261649 137.550601 
L 74.415917 133.805716 
L 74.784438 130.134366 
L 75.366072 126.568611 
L 76.116822 123.30003 
L 77.058062 120.183587 
L 78.127103 117.388682 
L 79.364821 114.778807 
L 80.691317 112.49778 
L 82.080076 110.532309 
L 83.599356 108.766728 
L 85.147066 107.301913 
L 86.80759 106.041501 
L 88.465522 105.057112 
L 90.220161 104.274493 
L 92.0703 103.704186 
L 93.8822 103.372664 
L 95.775282 103.243592 
L 97.748605 103.325306 
L 99.801267 103.626072 
L 101.932416 104.154089 
L 104.302001 104.98125 
L 106.759942 106.088582 
L 109.30554 107.485978 
L 111.938283 109.183288 
L 114.842286 111.33539 
L 117.845154 113.851812 
L 120.947378 116.744464 
L 124.150031 120.025282 
L 127.664917 123.949855 
L 131.298507 128.340539 
L 135.280554 133.51353 
L 139.409062 139.242121 
L 143.938253 145.909841 
L 148.915927 153.63654 
L 154.676384 162.993952 
L 162.827647 176.712659 
L 174.501367 196.345431 
L 179.813658 204.806829 
L 183.999564 211.061747 
L 187.645088 216.112451 
L 190.639216 219.924344 
L 193.32908 223.049737 
L 196.142766 225.978723 
L 198.587575 228.212666 
L 201.12595 230.199272 
L 203.223635 231.567144 
L 205.378358 232.698834 
L 207.585324 233.556438 
L 209.270396 233.997387 
L 210.976386 234.248936 
L 212.698113 234.298843 
L 214.429613 234.137797 
L 216.164341 233.760155 
L 217.895451 233.164463 
L 219.616123 232.353662 
L 221.319889 231.334935 
L 223.000926 230.119213 
L 225.198526 228.21622 
L 227.338038 226.026486 
L 229.413696 223.591409 
L 231.914384 220.26505 
L 234.310638 216.69398 
L 237.053691 212.176073 
L 240.085447 206.697447 
L 243.353976 200.29297 
L 247.191339 192.23346 
L 251.851581 181.871716 
L 259.134932 165.025633 
L 268.314801 143.885812 
L 273.871483 131.669001 
L 278.461629 122.088479 
L 282.718611 113.689337 
L 286.667491 106.354883 
L 290.604287 99.505014 
L 294.256676 93.577056 
L 297.911668 88.065658 
L 301.291688 83.348898 
L 304.680598 78.98983 
L 308.080768 74.991176 
L 311.209172 71.645488 
L 314.349974 68.609327 
L 317.504265 65.887058 
L 320.384299 63.689019 
L 323.276872 61.759258 
L 326.18253 60.103044 
L 328.809217 58.851311 
L 331.447226 57.831048 
L 334.096861 57.047913 
L 336.758402 56.508299 
L 339.134423 56.238904 
L 341.520232 56.173333 
L 343.915988 56.317988 
L 346.321834 56.680056 
L 348.737896 57.267635 
L 351.164267 58.089878 
L 353.601 59.157172 
L 356.048091 60.481355 
L 358.505447 62.075979 
L 360.972855 63.956647 
L 363.449922 66.141414 
L 365.935999 68.651301 
L 368.430063 71.510943 
L 370.930554 74.749398 
L 373.435116 78.401179 
L 375.627215 81.967795 
L 377.816334 85.915184 
L 379.997593 90.282112 
L 382.164012 95.114433 
L 384.305547 100.466312 
L 386.407655 106.401277 
L 388.162279 112.007682 
L 389.853718 118.146857 
L 391.456057 124.87105 
L 392.698196 130.95603 
L 393.827853 137.499745 
L 394.812848 144.505759 
L 395.616048 151.951518 
L 396.198342 159.777102 
L 396.480992 166.242205 
L 396.586009 172.810835 
L 396.506946 179.397645 
L 396.245559 185.91419 
L 395.677789 193.837958 
L 394.872491 201.3994 
L 393.868826 208.518315 
L 392.706373 215.157427 
L 391.420699 221.311958 
L 389.756618 228.081228 
L 387.997543 234.224343 
L 386.172881 239.797497 
L 384.30383 244.856601 
L 382.087127 250.177794 
L 379.847226 254.941629 
L 377.595449 259.209686 
L 375.339463 263.033905 
L 373.084466 266.457967 
L 370.833976 269.518659 
L 368.270512 272.61132 
L 365.718307 275.308861 
L 363.178763 277.643894 
L 360.652687 279.643869 
L 358.140485 281.332059 
L 355.642302 282.728329 
L 353.158107 283.849746 
L 350.687754 284.711063 
L 348.231022 285.325102 
L 345.787642 285.703065 
L 343.357319 285.854782 
L 340.939738 285.788922 
L 338.534577 285.513151 
L 336.141505 285.034277 
L 333.463336 284.260293 
L 330.79957 283.244562 
L 328.149718 281.993837 
L 325.513284 280.514084 
L 322.599023 278.6077 
L 319.699948 276.431437 
L 316.81527 273.990846 
L 313.657727 271.006641 
L 310.515307 267.713954 
L 307.386594 264.11746 
L 303.987189 259.852086 
L 300.599758 255.233897 
L 297.221452 250.266092 
L 293.567986 244.492488 
L 289.916082 238.313327 
L 285.977726 231.206535 
L 281.740713 223.07208 
L 277.184377 213.802317 
L 272.274601 203.283214 
L 266.354205 190.031943 
L 248.36561 149.276791 
L 244.220507 140.699588 
L 240.61401 133.770778 
L 237.65396 128.53117 
L 234.998234 124.217146 
L 232.227467 120.139613 
L 229.82977 116.980398 
L 227.35412 114.092357 
L 225.321651 112.011894 
L 223.248515 110.163014 
L 221.141587 108.567606 
L 219.009222 107.242842 
L 216.860867 106.199803 
L 214.706534 105.442621 
L 212.556205 104.968301 
L 210.419267 104.767247 
L 208.304054 104.824344 
L 206.217556 105.120384 
L 204.165283 105.633583 
L 202.151291 106.340978 
L 199.691663 107.463352 
L 197.298854 108.810369 
L 194.516492 110.668272 
L 191.82944 112.733742 
L 188.809822 115.339375 
L 185.500987 118.49756 
L 181.944146 122.192321 
L 177.809249 126.803358 
L 172.495914 133.095223 
L 164.946724 142.439044 
L 152.013401 158.467288 
L 146.114741 165.398679 
L 141.019632 171.047344 
L 136.390632 175.840568 
L 132.180415 179.87455 
L 128.351384 183.241081 
L 124.659098 186.187492 
L 121.304844 188.586982 
L 118.064966 190.63445 
L 114.93755 192.340379 
L 112.106605 193.63911 
L 109.372771 194.656291 
L 106.73576 195.401235 
L 104.195555 195.883422 
L 101.752354 196.112489 
L 99.406531 196.098216 
L 97.158597 195.850526 
L 95.009172 195.379476 
L 92.958953 194.695258 
L 91.008699 193.808189 
L 89.159203 192.728716 
L 87.298387 191.377112 
L 85.55414 189.831592 
L 83.829707 187.991676 
L 82.239141 185.963566 
L 80.702147 183.6289 
L 79.317699 181.120549 
L 78.023081 178.305921 
L 76.900878 175.342536 
L 75.907009 172.088048 
L 75.106316 168.721821 
L 74.474329 165.097078 
L 74.056764 161.411361 
L 73.85392 157.696701 
L 73.86579 153.985178 
L 74.092053 150.308875 
L 74.532077 146.699824 
L 75.18492 143.189965 
L 76.0034 139.968558 
L 77.012466 136.893277 
L 78.1462 134.13182 
L 79.449032 131.549803 
L 80.837763 129.289942 
L 82.285932 127.339731 
L 83.865378 125.58476 
L 85.470537 124.125632 
L 87.18944 122.866688 
L 88.903072 121.879798 
L 90.714472 121.090879 
L 92.622567 120.510425 
L 94.489759 120.165911 
L 96.439419 120.020399 
L 98.47074 120.082166 
L 100.582966 120.359413 
L 102.775402 120.860265 
L 105.212763 121.654175 
L 107.740894 122.723839 
L 110.35936 124.078994 
L 113.067947 125.729299 
L 116.056508 127.825749 
L 119.148166 130.280474 
L 122.343953 133.104932 
L 125.645574 136.310478 
L 129.272368 140.146473 
L 133.02588 144.438535 
L 137.145091 149.494341 
L 141.66572 155.416945 
L 146.6334 162.317154 
L 152.109058 170.310619 
L 159.32332 181.272042 
L 175.068367 205.36645 
L 180.109185 212.590707 
L 184.340972 218.25807 
L 188.012859 222.790068 
L 191.01679 226.175903 
L 193.704757 228.923318 
L 196.504287 231.467815 
L 198.925881 233.382619 
L 201.428979 235.05936 
L 203.488944 236.193003 
L 205.597223 237.109781 
L 207.749302 237.779352 
L 209.938585 238.172556 
L 211.599779 238.27037 
L 213.272587 238.189206 
L 214.952047 237.922558 
L 216.632826 237.466752 
L 218.309419 236.821256 
L 219.976372 235.988783 
L 222.175085 234.598459 
L 224.336586 232.907743 
L 226.452036 230.94458 
L 228.51496 228.740989 
L 231.013691 225.699588 
L 233.420611 222.399195 
L 236.188764 218.179217 
L 238.831899 213.75792 
L 241.770323 208.438566 
L 245.345324 201.472599 
L 249.454338 192.931521 
L 254.695663 181.471595 
L 273.027547 140.854909 
L 277.966918 130.68937 
L 282.554777 121.764605 
L 286.823341 113.96199 
L 290.792095 107.171043 
L 294.472532 101.289832 
L 298.154448 95.818293 
L 301.558689 91.132764 
L 304.971553 86.80005 
L 308.395742 82.823303 
L 311.546513 79.494161 
L 314.710301 76.471537 
L 317.888485 73.760202 
L 320.791288 71.570234 
L 323.707885 69.647192 
L 326.63909 67.996836 
L 329.290314 66.750128 
L 331.954563 65.735191 
L 334.632391 64.958305 
L 337.324355 64.426615 
L 339.729535 64.166406 
L 342.146734 64.112839 
L 344.576365 64.273243 
L 347.018846 64.655926 
L 349.474601 65.270341 
L 351.944049 66.127294 
L 354.427593 67.239196 
L 356.925604 68.620384 
L 359.438387 70.287514 
L 361.966134 72.26007 
L 364.508855 74.561007 
L 367.066261 77.217584 
L 369.315461 79.859325 
L 371.574384 82.824309 
L 373.841435 86.143509 
L 376.114063 89.853986 
L 378.388274 94.000378 
L 380.657871 98.636734 
L 382.592437 103.050093 
L 384.507668 107.920702 
L 386.390452 113.306127 
L 388.221639 119.272168 
L 389.688423 124.739176 
L 391.077715 130.70101 
L 392.359505 137.193408 
L 393.495084 144.235816 
L 394.266865 150.258888 
L 394.888486 156.597788 
L 395.334003 163.196959 
L 395.581978 169.973088 
L 395.619694 176.820689 
L 395.446062 183.624896 
L 395.071838 190.277664 
L 394.517056 196.691357 
L 393.608229 204.282705 
L 392.507784 211.34717 
L 391.261842 217.873243 
L 389.908242 223.879988 
L 388.182608 230.451694 
L 386.380983 236.39503 
L 384.529214 241.778652 
L 382.328917 247.434856 
L 380.103512 252.499089 
L 377.865436 257.04249 
L 375.622836 261.123869 
L 373.381067 264.791825 
L 370.824514 268.52894 
L 368.276941 271.828153 
L 365.740354 274.730171 
L 363.215901 277.268679 
L 360.704181 279.471792 
L 358.205435 281.363178 
L 355.719675 282.962916 
L 353.246769 284.288165 
L 350.786492 285.353684 
L 348.338567 286.17225 
L 345.902686 286.754979 
L 343.478525 287.111596 
L 341.065755 287.250644 
L 338.664048 287.179657 
L 336.273075 286.905304 
L 333.595658 286.360916 
L 330.930958 285.574067 
L 328.278516 284.551306 
L 325.637868 283.298399 
L 323.00854 281.820426 
L 320.099738 279.919689 
L 317.203583 277.751961 
L 314.3193 275.321865 
L 311.159283 272.350442 
L 308.011336 269.070785 
L 304.874012 265.486539 
L 301.461627 261.232457 
L 298.057355 256.622151 
L 294.658169 251.657517 
L 290.977219 245.880472 
L 287.292316 239.68896 
L 283.311499 232.556666 
L 279.019714 224.377876 
L 274.392036 215.037393 
L 269.387561 204.411317 
L 263.320716 190.984462 
L 248.287093 157.416027 
L 244.098512 148.740895 
L 240.434269 141.675752 
L 237.40647 136.300735 
L 234.669809 131.861472 
L 232.280728 128.346104 
L 229.788343 125.064321 
L 227.71957 122.655794 
L 225.586504 120.484116 
L 223.394196 118.591049 
L 221.150889 117.016312 
L 219.441715 116.064938 
L 217.716109 115.322938 
L 215.980598 114.797523 
L 214.242069 114.491616 
L 212.507434 114.403686 
L 210.783296 114.527952 
L 209.075672 114.854907 
L 207.389773 115.372073 
L 205.182986 116.332105 
L 203.029891 117.566556 
L 200.93522 119.036922 
L 198.901303 120.706174 
L 196.444874 123.020834 
L 194.081887 125.53482 
L 191.363657 128.746291 
L 188.342312 132.676968 
L 185.067413 137.313218 
L 181.207152 143.199655 
L 176.864794 150.25169 
L 171.475909 159.447266 
L 162.012669 176.138425 
L 152.95082 191.957653 
L 147.089892 201.754467 
L 142.003581 209.834622 
L 137.365655 216.784527 
L 133.129056 222.734366 
L 129.257651 227.803252 
L 125.518052 232.337391 
L 122.103277 236.144235 
L 118.799775 239.504041 
L 115.606141 242.431197 
L 112.700159 244.803762 
L 109.890909 246.817648 
L 107.17875 248.484738 
L 104.724868 249.743255 
L 102.357648 250.717264 
L 100.077984 251.416645 
L 97.886889 251.851343 
L 95.785465 252.03137 
L 93.90607 251.978531 
L 92.106793 251.720919 
L 90.269049 251.22716 
L 88.525691 250.518286 
L 86.877975 249.604766 
L 85.327147 248.497177 
L 83.781102 247.113875 
L 82.348135 245.535007 
L 80.95107 243.657971 
L 79.684837 241.591106 
L 78.488403 239.213729 
L 77.388315 236.514476 
L 76.457216 233.642883 
L 75.661462 230.459454 
L 75.056426 227.137985 
L 74.627956 223.531865 
L 74.41268 219.835659 
L 74.411643 216.081374 
L 74.625577 212.301094 
L 75.0549 208.526926 
L 75.699724 204.790958 
L 76.559859 201.125202 
L 77.578777 197.728466 
L 78.791912 194.451751 
L 80.123508 191.474848 
L 81.628726 188.654014 
L 83.213945 186.146428 
L 84.953099 183.818876 
L 86.736037 181.803196 
L 88.654429 179.981122 
L 90.582868 178.457204 
L 92.629676 177.131717 
L 94.655384 176.08068 
L 96.783866 175.225711 
L 99.014584 174.577076 
L 101.347076 174.144884 
L 103.615572 173.945566 
L 105.972222 173.951416 
L 108.416962 174.170247 
L 110.949884 174.609719 
L 113.761908 175.333935 
L 116.676129 176.329012 
L 119.693561 177.603636 
L 122.815674 179.166152 
L 126.044496 181.024489 
L 129.609263 183.341101 
L 133.302897 186.010818 
L 137.375015 189.241995 
L 141.608111 192.885768 
L 146.2789 197.196903 
L 151.718798 202.530464 
L 158.64273 209.660139 
L 175.941826 227.657033 
L 180.753007 232.263971 
L 184.653685 235.721688 
L 188.331566 238.687856 
L 191.311869 240.839577 
L 194.40407 242.795249 
L 197.147267 244.263812 
L 199.4997 245.302332 
L 201.911874 246.13666 
L 204.381367 246.730117 
L 206.395198 247.00561 
L 208.439211 247.082567 
L 210.508634 246.942169 
L 212.59749 246.5676 
L 214.698674 245.945222 
L 216.804161 245.065725 
L 218.905335 243.925062 
L 220.993412 242.525017 
L 223.059913 240.873264 
L 225.097104 238.982905 
L 227.592424 236.311569 
L 230.021775 233.336389 
L 232.378727 230.102595 
L 235.107277 225.944781 
L 237.726901 221.55424 
L 240.650769 216.224439 
L 243.830921 209.963396 
L 247.592284 202.023856 
L 251.843025 192.504139 
L 257.483659 179.291659 
L 272.251404 144.41533 
L 277.379971 132.992221 
L 281.87625 123.485896 
L 286.060566 115.128339 
L 290.230367 107.307847 
L 294.119447 100.494088 
L 297.735151 94.588157 
L 301.360111 89.090122 
L 304.717892 84.379933 
L 308.089543 80.023645 
L 311.477235 76.025658 
L 314.598279 72.680171 
L 317.735546 69.6452 
L 320.602561 67.160426 
L 323.484528 64.942025 
L 326.382053 62.995691 
L 329.003577 61.481946 
L 331.638499 60.199146 
L 334.287141 59.153279 
L 336.949796 58.351073 
L 339.328578 57.848659 
L 341.718803 57.550696 
L 344.120613 57.463828 
L 346.534121 57.595488 
L 348.959406 57.954009 
L 351.3965 58.548769 
L 353.845375 59.390357 
L 356.305919 60.490774 
L 358.777905 61.863685 
L 361.260946 63.524712 
L 363.754438 65.491804 
L 366.257468 67.785685 
L 368.768696 70.430407 
L 370.971235 73.054281 
L 373.176745 75.98997 
L 375.382718 79.262608 
L 377.585705 82.901253 
L 379.780968 86.93956 
L 381.961962 91.416476 
L 384.119631 96.376898 
L 386.241388 101.872069 
L 388.018348 107.05114 
L 389.741238 112.703901 
L 391.390361 118.869589 
L 392.940024 125.584075 
L 394.357432 132.873238 
L 395.40871 139.391472 
L 396.313491 146.299055 
L 397.043447 153.559282 
L 397.571465 161.108358 
L 397.875422 168.854936 
L 397.942106 176.686028 
L 397.769896 184.479237 
L 397.36904 192.118028 
L 396.759419 199.504936 
L 395.966808 206.568895 
L 395.019014 213.266043 
L 393.714475 220.790933 
L 392.266144 227.756126 
L 390.70797 234.18134 
L 389.066858 240.098193 
L 387.074908 246.407263 
L 385.023023 252.132244 
L 382.929224 257.327889 
L 380.806598 262.043492 
L 378.664679 266.322479 
L 376.202009 270.726426 
L 373.730724 274.657879 
L 371.256163 278.158025 
L 368.782139 281.261892 
L 366.311385 283.999371 
L 363.845869 286.396082 
L 361.387009 288.474093 
L 358.935826 290.252503 
L 356.49305 291.747925 
L 354.059203 292.974877 
L 351.634648 293.946103 
L 349.219632 294.672839 
L 346.814316 295.165028 
L 344.418795 295.431502 
L 342.033113 295.480133 
L 339.657273 295.317958 
L 337.291247 294.951284 
L 334.641129 294.301368 
L 332.003244 293.407005 
L 329.377439 292.274619 
L 326.763527 290.909934 
L 324.161282 289.318054 
L 321.283258 287.288352 
L 318.418879 284.989291 
L 315.567637 282.425711 
L 312.445723 279.305275 
L 309.338028 275.874694 
L 306.243418 272.138034 
L 302.8808 267.716519 
L 299.530009 262.938174 
L 295.910321 257.361905 
L 292.297436 251.371972 
L 288.686351 244.969407 
L 284.792338 237.612874 
L 280.603294 229.198571 
L 276.098447 219.613748 
L 271.243081 208.737296 
L 265.384239 195.028588 
L 247.853247 153.537336 
L 244.101487 145.409049 
L 240.507332 138.156395 
L 237.545079 132.652246 
L 234.876475 128.108592 
L 232.080431 123.807178 
L 229.650951 120.474186 
L 227.133292 117.433218 
L 225.060101 115.252024 
L 222.940654 113.327101 
L 220.783004 111.684792 
L 218.597101 110.345523 
L 216.394266 109.321939 
L 214.738224 108.764018 
L 213.084414 108.384193 
L 210.89102 108.146743 
L 208.720253 108.200843 
L 206.580642 108.524129 
L 204.478839 109.090793 
L 202.419639 109.873499 
L 200.406145 110.844949 
L 197.955975 112.285042 
L 195.580539 113.932567 
L 192.826868 116.125833 
L 189.741922 118.907947 
L 186.372821 122.289783 
L 182.76347 126.25008 
L 178.581665 131.191122 
L 173.572452 137.479943 
L 166.596415 146.640806 
L 151.873688 166.070457 
L 146.021263 173.368622 
L 140.963979 179.319654 
L 136.604322 184.125048 
L 132.412265 188.418977 
L 128.597964 192.0157 
L 124.918072 195.178584 
L 121.573392 197.77009 
L 118.341122 199.998828 
L 115.219418 201.875769 
L 112.392176 203.325868 
L 109.660518 204.486026 
L 107.024228 205.365783 
L 104.483363 205.974807 
L 102.038198 206.32289 
L 99.689182 206.419945 
L 97.584034 206.292895 
L 95.422672 205.933182 
L 93.359468 205.352206 
L 91.395254 204.560349 
L 89.530899 203.568108 
L 87.767299 202.386095 
L 85.998193 200.928199 
L 84.345831 199.279748 
L 82.719303 197.334347 
L 81.226994 195.204944 
L 79.79449 192.767807 
L 78.515052 190.162114 
L 77.331889 187.250526 
L 76.273461 184.0321 
L 75.40804 180.683071 
L 74.708165 177.056185 
L 74.223061 173.347759 
L 73.953303 169.58998 
L 73.899159 165.815108 
L 74.060583 162.055433 
L 74.437213 158.343223 
L 75.028378 154.710677 
L 75.833099 151.189882 
L 76.796879 147.96985 
L 77.889597 145.056493 
L 79.153546 142.308818 
L 80.507564 139.879565 
L 82.012518 137.639294 
L 83.5711 135.714426 
L 85.158557 134.086957 
L 86.861728 132.651665 
L 88.679415 131.421722 
L 90.486418 130.466744 
L 92.391995 129.714335 
L 94.395156 129.175014 
L 96.351963 128.873086 
L 98.392187 128.774228 
L 100.515131 128.886737 
L 102.72016 129.21883 
L 105.00673 129.778648 
L 107.546615 130.64032 
L 110.179238 131.782497 
L 112.904453 133.214918 
L 115.722391 134.947231 
L 118.633519 136.988992 
L 121.842442 139.518609 
L 125.160119 142.422412 
L 128.589092 145.71155 
L 132.358337 149.640645 
L 136.263181 154.029594 
L 140.554505 159.190969 
L 145.273405 165.226145 
L 150.473468 172.241766 
L 156.793412 181.154718 
L 178.53996 212.20976 
L 182.700931 217.601911 
L 186.300624 221.94698 
L 189.669037 225.680374 
L 192.761389 228.773969 
L 195.528755 231.233039 
L 197.92163 233.097467 
L 200.395286 234.746054 
L 202.43213 235.874875 
L 204.518711 236.803319 
L 206.651664 237.500804 
L 208.825643 237.936712 
L 210.478608 238.074557 
L 212.146476 238.038332 
L 213.82462 237.819293 
L 215.507888 237.411209 
L 217.190769 236.810825 
L 218.867607 236.018165 
L 220.532836 235.03661 
L 222.726079 233.445832 
L 224.878484 231.554452 
L 226.981354 229.392201 
L 229.028488 226.992658 
L 231.503519 223.712579 
L 233.883077 220.181964 
L 236.614669 215.698044 
L 239.640553 210.234868 
L 242.90734 203.816395 
L 246.371737 196.510765 
L 250.706351 186.810766 
L 256.424043 173.414599 
L 270.436074 140.369826 
L 275.608751 128.856882 
L 280.135398 119.300577 
L 284.342364 110.917067 
L 288.25126 103.592178 
L 292.153452 96.748118 
L 295.777822 90.823101 
L 299.408231 85.313115 
L 302.768253 80.596977 
L 306.13947 76.238492 
L 309.524016 72.240967 
L 312.639734 68.89729 
L 315.769262 65.864532 
L 318.627071 63.381321 
L 321.497679 61.163258 
L 324.381603 59.215195 
L 327.279285 57.54268 
L 329.899275 56.278221 
L 332.530952 55.247283 
L 335.174521 54.455725 
L 337.830154 53.910137 
L 340.200958 53.637639 
L 342.581481 53.571175 
L 344.971774 53.717258 
L 347.371859 54.083175 
L 349.781718 54.677098 
L 352.201288 55.508223 
L 354.630437 56.586936 
L 357.068951 57.925014 
L 359.516493 59.535862 
L 361.972568 61.434816 
L 364.436457 63.639499 
L 366.907135 66.170273 
L 369.383146 69.050783 
L 371.862434 72.308642 
L 374.342093 75.976265 
L 376.818 80.09189 
L 378.976785 84.095962 
L 381.122754 88.513163 
L 383.248347 93.384786 
L 385.343086 98.758516 
L 387.392379 104.688762 
L 389.097489 110.260559 
L 390.736916 116.326147 
L 392.287574 122.925365 
L 393.719327 130.092211 
L 394.794255 136.512819 
L 395.733631 143.338415 
L 396.507837 150.545559 
L 397.086362 158.083568 
L 397.441484 165.870324 
L 397.552969 173.794191 
L 397.412356 181.724229 
L 397.025041 189.527072 
L 396.409107 197.084845 
L 395.591458 204.307753 
L 394.603004 211.138291 
L 393.474522 217.548313 
L 391.974632 224.678723 
L 390.353864 231.215105 
L 388.64429 237.193167 
L 386.8704 242.655596 
L 384.743813 248.434884 
L 382.575767 253.637085 
L 380.381277 258.320847 
L 378.170953 262.537402 
L 375.952316 266.330941 
L 373.730712 269.739383 
L 371.192937 273.204686 
L 368.660204 276.250578 
L 366.13521 278.911864 
L 363.619772 281.218057 
L 361.115092 283.194315 
L 358.621948 284.862211 
L 356.140818 286.240348 
L 353.671971 287.344851 
L 351.215525 288.189772 
L 348.771495 288.787414 
L 346.339821 289.148599 
L 343.92039 289.282883 
L 341.513051 289.198737 
L 339.117626 288.903697 
L 336.733916 288.404485 
L 334.065974 287.606286 
L 331.412251 286.564906 
L 328.772393 285.28711 
L 326.14602 283.778904 
L 323.243146 281.83936 
L 320.355811 279.628409 
L 317.483345 277.151729 
L 314.33992 274.126369 
L 311.212477 270.791193 
L 308.099743 267.151081 
L 304.719078 262.83709 
L 301.351935 258.169485 
L 297.995668 253.151756 
L 294.368309 247.323836 
L 290.745143 241.090483 
L 286.841118 233.925884 
L 282.645432 225.730596 
L 278.139392 216.39766 
L 273.291783 205.813621 
L 267.755664 193.176508 
L 258.578143 171.559388 
L 251.620163 155.396602 
L 246.972068 145.143514 
L 243.161136 137.266244 
L 239.935915 131.074578 
L 236.96873 125.825447 
L 234.309525 121.52318 
L 231.539946 117.475092 
L 229.148605 114.351444 
L 226.685755 111.504746 
L 224.159049 108.980456 
L 222.099153 107.220413 
L 220.012788 105.708946 
L 217.908236 104.457354 
L 215.794379 103.471067 
L 213.680212 102.749377 
L 211.574366 102.285719 
L 209.484697 102.068446 
L 207.417998 102.081921 
L 205.379838 102.307756 
L 203.374529 102.726009 
L 200.918737 103.48828 
L 198.522856 104.480192 
L 196.188558 105.665112 
L 193.468691 107.295282 
L 190.404845 109.421741 
L 187.040347 112.068129 
L 183.417254 115.228504 
L 179.199427 119.238074 
L 174.477516 124.046618 
L 168.010552 130.982467 
L 150.079993 150.410746 
L 144.475881 156.04808 
L 139.644897 160.593156 
L 135.259318 164.413387 
L 131.276689 167.5931 
L 127.440804 170.364663 
L 123.95933 172.608812 
L 120.598982 174.508669 
L 117.556263 175.985605 
L 114.616039 177.176676 
L 111.777201 178.090545 
L 109.039038 178.736154 
L 106.401162 179.12269 
L 103.863447 179.259554 
L 101.425981 179.156338 
L 99.089022 178.822815 
L 96.852961 178.268922 
L 94.718295 177.504754 
L 92.685595 176.540554 
L 90.755492 175.386707 
L 88.810547 173.958758 
L 86.983919 172.339933 
L 85.173698 170.425428 
L 83.49897 168.326097 
L 81.87446 165.919671 
L 80.403967 163.343303 
L 79.019937 160.460931 
L 77.809597 157.433962 
L 76.724141 154.117043 
L 75.832895 150.693004 
L 75.106737 147.012541 
L 74.595733 143.276221 
L 74.299982 139.516086 
L 74.219279 135.764231 
L 74.353108 132.052745 
L 74.70064 128.41367 
L 75.260734 124.87895 
L 75.990454 121.638669 
L 76.91016 118.549201 
L 77.958274 115.778605 
L 79.174605 113.191675 
L 80.480414 110.931052 
L 81.849251 108.983597 
L 83.34823 107.234755 
L 84.876482 105.784476 
L 86.517202 104.537366 
L 88.156248 103.564287 
L 89.89168 102.791809 
L 91.722283 102.230434 
L 93.515642 101.906118 
L 95.389873 101.783126 
L 97.344022 101.869756 
L 99.37717 102.174233 
L 101.488445 102.70472 
L 103.836308 103.5331 
L 106.272051 104.640122 
L 108.794932 106.035622 
L 111.404388 107.729388 
L 114.282855 109.875824 
L 117.259378 112.384549 
L 120.334338 115.267386 
L 123.710397 118.753564 
L 127.20063 122.689692 
L 130.808141 127.090051 
L 134.760752 132.271113 
L 138.857589 138.005433 
L 143.350369 144.676581 
L 148.285528 152.40403 
L 153.992641 161.75933 
L 161.768082 174.97464 
L 174.593313 196.799759 
L 179.533124 204.754571 
L 183.690299 211.054126 
L 187.308236 216.147228 
L 190.713999 220.536499 
L 193.399638 223.67608 
L 196.207742 226.617277 
L 198.646457 228.860582 
L 201.177027 230.856959 
L 203.26699 232.234104 
L 205.412516 233.377711 
L 207.60875 234.251471 
L 209.284802 234.708422 
L 210.981042 234.980212 
L 212.692451 235.055387 
L 214.41329 234.925311 
L 216.137296 234.584835 
L 217.857942 234.032755 
L 219.568735 233.271973 
L 221.263523 232.309348 
L 222.936752 231.155238 
L 225.126114 229.341623 
L 227.260137 227.247591 
L 229.333136 224.912396 
L 231.834331 221.713804 
L 234.234925 218.270878 
L 236.987429 213.90417 
L 240.034757 208.595568 
L 243.325307 202.375057 
L 247.19411 194.529539 
L 251.898387 184.421906 
L 258.935745 168.683145 
L 268.835217 146.616309 
L 274.150144 135.309717 
L 278.78596 125.935064 
L 283.083545 117.721027 
L 287.068562 110.553515 
L 291.039986 103.865724 
L 294.72336 98.084425 
L 298.408395 92.716396 
L 301.815485 88.129367 
L 305.231003 83.897804 
L 308.657509 80.024711 
L 311.809989 76.792672 
L 314.974988 73.869053 
L 317.864205 71.482779 
L 320.765699 69.359421 
L 323.680272 67.503824 
L 326.608672 65.921596 
L 329.256646 64.736647 
L 331.916905 63.783745 
L 334.589948 63.069013 
L 337.276276 62.599415 
L 339.675683 62.394177 
L 342.086345 62.395197 
L 344.508627 62.609607 
L 346.9429 63.045485 
L 349.389535 63.712013 
L 351.848898 64.61968 
L 354.321338 65.780513 
L 356.807171 67.208392 
L 359.306646 68.919416 
L 361.819906 70.93239 
L 364.346918 73.26943 
L 366.887369 75.95675 
L 369.440508 79.025682 
L 371.683807 82.053548 
L 373.934117 85.432761 
L 376.188885 89.199643 
L 378.444155 93.397918 
L 380.693833 98.080515 
L 382.928552 103.311701 
L 384.821361 108.290821 
L 386.679116 113.787913 
L 388.482012 119.869168 
L 389.92206 125.435053 
L 391.280945 131.498179 
L 392.52766 138.093438 
L 393.622271 145.238186 
L 394.356157 151.340052 
L 394.934747 157.751423 
L 395.331924 164.412244 
L 395.526691 171.234116 
L 395.507504 178.106963 
L 395.27505 184.913064 
L 394.842096 191.544025 
L 394.23048 197.914244 
L 393.255208 205.426288 
L 392.09459 212.39114 
L 390.794985 218.804414 
L 389.393846 224.690644 
L 387.618321 231.112842 
L 385.773457 236.905218 
L 383.883991 242.138852 
L 381.645487 247.623019 
L 379.386978 252.519319 
L 377.119993 256.899259 
L 374.851977 260.821677 
L 372.587741 264.335035 
L 370.008575 267.900538 
L 367.441178 271.033204 
L 364.887163 273.773381 
L 362.347364 276.154411 
L 359.822123 278.204099 
L 357.311472 279.945829 
L 354.815247 281.399426 
L 352.333168 282.581819 
L 349.864884 283.507568 
L 347.410006 284.189265 
L 344.968129 284.637864 
L 342.538843 284.862944 
L 340.121741 284.872915 
L 337.716422 284.675193 
L 335.322493 284.276338 
L 332.642459 283.594433 
L 329.975812 282.672644 
L 327.322017 281.517404 
L 324.680533 280.134377 
L 321.759322 278.336565 
L 318.851853 276.26965 
L 315.957303 273.938809 
L 313.074785 271.348502 
L 309.916758 268.20402 
L 306.770686 264.754462 
L 303.634942 261.003317 
L 300.223705 256.570434 
L 296.819691 251.784607 
L 293.136235 246.203742 
L 289.452109 240.211959 
L 285.47653 233.299903 
L 281.482896 225.910558 
L 277.169645 217.461795 
L 272.507433 207.841157 
L 267.146525 196.266515 
L 259.373976 178.896123 
L 250.606502 159.407095 
L 246.18817 150.084008 
L 242.254151 142.299227 
L 238.904702 136.173562 
L 235.802649 130.992953 
L 233.003245 126.77686 
L 230.565959 123.491936 
L 228.03297 120.48189 
L 225.940157 118.318205 
L 223.793175 116.410899 
L 221.599306 114.794166 
L 219.368441 113.497355 
L 217.678241 112.748055 
L 215.979726 112.196546 
L 214.278844 111.844758 
L 212.581525 111.69101 
L 210.89343 111.730198 
L 209.219736 111.954214 
L 207.56498 112.352525 
L 205.39455 113.133301 
L 203.271329 114.17001 
L 201.199887 115.429653 
L 198.68712 117.268883 
L 196.260598 119.348298 
L 193.460547 122.089335 
L 190.7769 125.029312 
L 187.782775 128.632421 
L 184.524855 132.891272 
L 180.669657 138.313033 
L 176.316677 144.827613 
L 170.569707 153.870062 
L 163.111338 165.974222 
L 163.111338 165.974222 
" style="fill:none;stroke:#42039d;stroke-linecap:square;"/>
   </g>
  </g>
 </g>
 <defs>
  <clipPath id="p2f6a31efa6">
   <rect height="266.112" width="357.12" x="57.6" y="41.472"/>
  </clipPath>
 </defs>
</svg>
